<?xml version="1.0" encoding="UTF-8"?>
<!DOCTYPE svg PUBLIC "-//W3C//DTD SVG 1.1//EN" "http://www.w3.org/Graphics/SVG/1.1/DTD/svg11.dtd">
<!-- Creator: CorelDRAW 2020 (64 Bit) -->
<svg xmlns="http://www.w3.org/2000/svg" xml:space="preserve" width="5.4187mm" height="5.4187mm" version="1.1" style="shape-rendering:geometricPrecision; text-rendering:geometricPrecision; image-rendering:optimizeQuality; fill-rule:evenodd; clip-rule:evenodd"
viewBox="0 0 2.61 2.61"
 xmlns:xlink="http://www.w3.org/1999/xlink"
 xmlns:xodm="http://www.corel.com/coreldraw/odm/2003">
 <defs>
  <style type="text/css">
   <![CDATA[
    .fil0 {fill:#268EEF}
   ]]>
  </style>
 </defs>
 <g id="Camada_x0020_1">
  <metadata id="CorelCorpID_0Corel-Layer"/>
  <path class="fil0" d="M0.19 0.04c0.02,0.01 0.05,0.02 0.08,0.03 0.06,0.03 0.15,0.11 0.17,0.18 -0.06,-0.04 -0.09,-0.07 -0.17,-0.05 -0.05,0.01 -0.11,0.05 -0.13,0.11 0.1,-0.02 0.21,0 0.29,0.07 0.01,0.01 0.02,0.02 0.03,0.03 -0.06,-0.01 -0.07,-0.03 -0.15,-0.02 -0.12,0.02 -0.27,0.13 -0.31,0.27 0.08,-0.05 0.15,-0.09 0.25,-0.1 -0.01,0.04 -0.02,0.07 -0.03,0.11 -0.01,0.04 -0.01,0.09 -0.01,0.14 -0,0.07 0.01,0.13 0.03,0.19 0,0.01 0.01,0.03 0.02,0.05 0.01,0.01 -0,0 0.01,0.01 0.02,-0.13 0.09,-0.32 0.16,-0.42 0.02,-0.03 0.06,-0.1 0.08,-0.11 -0.02,0.29 -0.01,0.39 0.03,0.66 0.01,0.1 -0.03,0.13 -0.08,0.17 -0.01,0.01 -0.03,0.02 -0.04,0.04 -0.03,0.03 -0.14,0.12 -0.17,0.15 0.05,0.01 0.13,0 0.19,0 0.03,0 0.18,-0 0.19,0l-0 1.08 0.11 0 0 -0.08c0.05,-0.01 0.18,-0 0.25,-0 0.02,-0 0.06,-0.01 0.08,0.01 0,0.01 0,0.05 0,0.07l0.11 0c-0,-0.01 0,-0.03 0,-0.04 -0,-0.02 -0,-0.04 0.01,-0.04 0.04,-0 0.23,0 0.28,-0l-0 0.08 0.11 0 -0 -0.08 0.32 -0 0 0.08 0.11 0c-0.01,-0.21 0,-0.85 0,-1.05 0,-0 -0,-0.01 0,-0.02l0 -0.01 0.37 0.01c-0.05,-0.05 -0.22,-0.2 -0.25,-0.24 -0.03,-0.04 -0.04,-0.07 -0.03,-0.13 0.04,-0.2 0.05,-0.41 0.03,-0.62l-0 -0.04c0.01,0.02 0.06,0.09 0.07,0.12 0.02,0.04 0.04,0.08 0.06,0.13 0.06,0.13 0.06,0.18 0.09,0.3 0.01,-0.01 0.02,-0.03 0.02,-0.05 0.01,-0.02 0.01,-0.04 0.02,-0.06 0.02,-0.09 0.02,-0.19 0,-0.27 -0.01,-0.05 -0.02,-0.08 -0.03,-0.12 0.07,0.01 0.13,0.04 0.19,0.07 0.02,0.01 0.04,0.02 0.06,0.03 -0,-0.02 -0.02,-0.05 -0.03,-0.07 -0.04,-0.07 -0.08,-0.11 -0.14,-0.15 -0.04,-0.03 -0.08,-0.04 -0.13,-0.05 -0.07,-0.01 -0.1,0 -0.16,0.01 0,-0 0,-0 0,-0l0.03 -0.02c0.09,-0.06 0.19,-0.08 0.29,-0.06 -0.02,-0.05 -0.08,-0.09 -0.14,-0.1 -0.07,-0.01 -0.13,0.01 -0.17,0.05 0.03,-0.06 0.06,-0.1 0.1,-0.14 0.02,-0.02 0.04,-0.03 0.07,-0.05 0.02,-0.01 0.05,-0.02 0.07,-0.03l0.01 -0.01c-0.06,-0.06 -0.18,-0.05 -0.25,-0 -0.04,0.02 -0.06,0.05 -0.08,0.09 -0.03,0.05 -0.03,0.08 -0.05,0.13 -0.04,-0.03 -0.04,-0.05 -0.09,-0.07 -0.11,-0.06 -0.24,-0.03 -0.33,0.06l-0.02 0.03c0.08,-0 0.14,-0 0.22,0.02 0.03,0.01 0.14,0.06 0.16,0.09 -0.11,-0.01 -0.2,0.03 -0.28,0.1 -0.03,0.03 -0.09,0.1 -0.1,0.15l0.25 -0.09c-0.01,0.06 -0.03,0.06 -0.03,0.16 -0,0.05 0,0.14 0.02,0.18 0.01,-0.02 0.03,-0.08 0.05,-0.11 0.03,-0.07 0.07,-0.13 0.11,-0.19 0.01,-0.02 0.05,-0.07 0.07,-0.08 0,0.12 -0,0.24 -0.01,0.35 -0.01,0.05 -0.01,0.11 -0.02,0.16 -0.01,0.05 -0.02,0.11 -0.03,0.16 -0.02,-0.01 -0.44,-0.41 -0.47,-0.44 -0.03,-0.03 -0.05,-0.05 -0.08,-0.07 -0.01,-0.01 -0.03,-0.02 -0.04,-0.04 -0.01,-0.01 -0.03,-0.03 -0.04,-0.04 0.01,-0.02 0.02,-0.04 0.03,-0.06 0.02,-0.04 0.08,-0.13 0.08,-0.17 -0.01,-0.01 -0.05,-0.05 -0.06,-0.06 -0.02,0.04 -0.08,0.16 -0.1,0.19 -0.02,-0.03 -0.04,-0.06 -0.05,-0.1 -0.02,-0.03 -0.04,-0.07 -0.05,-0.1 -0.01,0.01 -0.02,0.02 -0.03,0.03 -0.01,0.01 -0.02,0.02 -0.03,0.03 0.02,0.05 0.06,0.11 0.08,0.16 0.01,0.01 0.02,0.04 0.03,0.06l-0.23 0.22c-0.08,0.07 -0.16,0.16 -0.23,0.22 -0.03,0.02 -0.05,0.05 -0.08,0.07 -0.02,0.02 -0.05,0.06 -0.08,0.07 -0.02,-0.05 -0.04,-0.25 -0.04,-0.31 -0.01,-0.13 -0.01,-0.24 -0.01,-0.36 0.02,0.01 0.05,0.07 0.06,0.09 0.05,0.08 0.1,0.16 0.14,0.24 0.01,0.01 0.02,0.04 0.02,0.05 0.02,-0.03 0.02,-0.13 0.02,-0.18 -0.01,-0.09 -0.03,-0.12 -0.04,-0.16 0.07,0.01 0.13,0.03 0.19,0.06 0.02,0.01 0.04,0.02 0.06,0.03 -0.02,-0.04 -0.04,-0.07 -0.07,-0.1 -0.08,-0.11 -0.19,-0.15 -0.32,-0.15l0.02 -0.02c0.08,-0.05 0.16,-0.08 0.25,-0.09 0.04,-0 0.08,0 0.11,-0 -0.03,-0.03 -0.05,-0.06 -0.09,-0.08 -0.04,-0.02 -0.08,-0.03 -0.13,-0.03 -0.1,-0 -0.18,0.05 -0.23,0.1 -0,-0.01 -0.01,-0.05 -0.02,-0.07 -0.01,-0.02 -0.02,-0.04 -0.03,-0.06 -0.02,-0.04 -0.05,-0.06 -0.08,-0.09 -0.07,-0.05 -0.18,-0.05 -0.25,0zm1.37 2.34l0.06 0 0 -0.35c0.02,-0.01 0.22,-0 0.26,-0 0,-0.02 0,-0.41 0,-0.46l-0.32 0 -0 0.81zm-0.84 -0.4l0.33 0 0 -0.41 -0.33 -0 -0 0.41zm0.44 -0c0.02,0.01 0.27,0.01 0.29,0l0 -0.41 -0.29 -0c-0,0.04 -0,0.4 0,0.41zm-0.24 0.4l0.32 0 0 -0.07 -0.32 -0 0 0.07zm-0 -0.18l0.13 -0 -0 -0.1 -0.13 -0 -0 0.1zm0.4 0l0.13 0 -0 -0.1 -0.13 0 -0 0.1zm-0.6 -0l0.11 -0 -0 -0.1 -0.11 -0 -0 0.1zm0.6 0.17l0 0.02 0.1 0 0.01 0 0.01 -0 0 -0.07 -0.13 -0 0 0.06zm-0.6 0.02l0.11 -0 0 -0.07 -0.11 -0 -0 0.07zm0.44 -0.19l0.08 0 -0 -0.1 -0.08 0 -0 0.1z"/>
 </g>
</svg>
