<?xml version="1.0" encoding="UTF-8"?>
<!DOCTYPE svg PUBLIC "-//W3C//DTD SVG 1.1//EN" "http://www.w3.org/Graphics/SVG/1.1/DTD/svg11.dtd">
<!-- Creator: CorelDRAW 2020 (64 Bit) -->
<svg xmlns="http://www.w3.org/2000/svg" xml:space="preserve" width="5.4188mm" height="5.4188mm" version="1.1" style="shape-rendering:geometricPrecision; text-rendering:geometricPrecision; image-rendering:optimizeQuality; fill-rule:evenodd; clip-rule:evenodd"
viewBox="0 0 2.73 2.73"
 xmlns:xlink="http://www.w3.org/1999/xlink"
 xmlns:xodm="http://www.corel.com/coreldraw/odm/2003">
 <defs>
  <style type="text/css">
   <![CDATA[
    .fil0 {fill:#268EEF}
   ]]>
  </style>
 </defs>
 <g id="Camada_x0020_1">
  <metadata id="CorelCorpID_0Corel-Layer"/>
  <path class="fil0" d="M0.52 1.45c0,0.19 0.01,0.36 0.04,0.55 0.02,0.11 0.05,0.23 0.09,0.33 0.01,0.03 0.04,0.08 0.05,0.1 -0.13,0.02 -0.38,0.11 -0.5,0.16 -0.04,0.02 -0.08,0.03 -0.12,0.05 -0.03,0.01 -0.11,0.04 -0.07,0.08 0.02,0.03 0.07,-0 0.11,-0.02 0.38,-0.17 0.81,-0.27 1.26,-0.27 0.42,0 0.9,0.12 1.23,0.28 0.02,0.01 0.04,0.02 0.06,0.03 0.03,0.01 0.05,-0 0.06,-0.03 0,-0.04 -0.07,-0.06 -0.11,-0.08 -0.23,-0.1 -0.47,-0.17 -0.72,-0.22l-0.14 -0.02c-0,-0 -0,-0 -0.01,-0l-0.01 -0c0.03,-0.05 0.06,-0.09 0.1,-0.16 0.21,-0.39 0.38,-1.04 0.38,-1.47 0,-0.18 -0.02,-0.35 -0.09,-0.5 -0.05,-0.13 -0.08,-0.12 -0.16,-0.07 -0.06,0.03 -0.12,0.08 -0.16,0.12 -0.02,0.02 -0.05,0.04 -0.07,0.07 -0.02,0.03 -0.04,0.05 -0.07,0.08 -0.09,0.12 -0.2,0.31 -0.26,0.45 -0.01,0.03 -0.04,0.07 -0.04,0.1 -0,-0 -0,-0 -0,-0.01l-0 -0.03c-0.03,-0.27 -0.13,-0.67 -0.31,-0.87 -0.09,-0.09 -0.1,-0.12 -0.22,0.04 -0.24,0.31 -0.31,0.85 -0.31,1.33zm0.91 0.9l0.22 0.01c0.03,-0.02 0.09,-0.14 0.12,-0.18 0.07,-0.13 0.13,-0.28 0.18,-0.42 0.02,-0.06 0.06,-0.17 0.07,-0.23 -0.03,0.01 -0.09,0.04 -0.12,0.06 -0.03,0.02 -0.27,0.14 -0.28,0.15 -0.01,0.01 -0.02,0.05 -0.02,0.06l-0.12 0.4c-0.01,0.03 -0.04,0.11 -0.04,0.14zm-0.04 -1.11c0.01,-0 0.22,-0.13 0.25,-0.14 0.02,-0.01 0.04,-0.02 0.06,-0.03 0.03,-0.02 0.05,-0.02 0.06,-0.05 0.06,-0.2 0.13,-0.41 0.19,-0.61 0.01,-0.04 0.04,-0.11 0.05,-0.16 -0.03,0.01 -0.09,0.07 -0.11,0.09 -0.16,0.14 -0.31,0.4 -0.4,0.6l-0.09 0.21c-0.01,0.03 -0,0.07 -0,0.1zm0.26 0.41l0.29 -0.15c0.02,-0.01 0.09,-0.04 0.1,-0.05 0.03,-0.02 0.09,-0.44 0.1,-0.51 -0.04,0.01 -0.26,0.12 -0.3,0.15 -0.02,0.01 -0.02,0.02 -0.03,0.05l-0.09 0.29c-0.01,0.04 -0.02,0.08 -0.04,0.12 -0.01,0.03 -0.03,0.09 -0.03,0.12zm-0.25 -0.32c0,0.12 0,0.2 -0,0.32 -0,0.05 -0.01,0.11 -0.01,0.16l0.16 -0.09c0.03,-0.01 0.02,-0.04 0.04,-0.09 0.01,-0.03 0.02,-0.07 0.03,-0.1 0.01,-0.03 0.11,-0.37 0.12,-0.39 -0.05,0.02 -0.31,0.18 -0.33,0.19zm0.45 -0.34c0.02,-0.01 0.24,-0.12 0.3,-0.14 0.01,-0.09 0,-0.23 -0.01,-0.32 -0.01,-0.06 -0.04,-0.23 -0.07,-0.27 -0.01,0.02 -0.1,0.31 -0.11,0.36 -0.02,0.06 -0.04,0.12 -0.05,0.18l-0.05 0.18zm-0.6 1.37l0.1 -0c0.01,-0.04 0.03,-0.09 0.04,-0.13 0.02,-0.06 0.12,-0.38 0.12,-0.41 -0.02,0.01 -0.05,0.03 -0.06,0.04 -0.12,0.07 -0.08,0.03 -0.11,0.19 -0.01,0.06 -0.02,0.11 -0.04,0.16 -0.02,0.07 -0.04,0.11 -0.05,0.15zm0.04 -0.46c0.01,-0.02 0.02,-0.19 0.02,-0.24 0.02,-0.41 -0.02,-1 -0.21,-1.37 -0.02,-0.03 -0.08,-0.14 -0.11,-0.16 -0.01,0.17 -0,0.35 -0,0.51l0 0.9c-0,0.06 -0.01,0.04 0.04,0.09 0.09,0.09 0.17,0.17 0.26,0.26zm-0.7 -0.45c-0,0.16 0.01,0.29 0.03,0.45 0.02,-0.01 0.13,-0.13 0.15,-0.15 0.03,-0.03 0.05,-0.05 0.08,-0.08l0.06 -0.06c0.01,-0.01 0.01,-0.01 0.01,-0.03l-0 -1.45c-0.01,0 -0,0 -0.01,0.01l-0.04 0.05c-0.04,0.05 -0.08,0.14 -0.11,0.2 -0.13,0.32 -0.17,0.7 -0.17,1.05zm0.1 0.77c0.02,-0.01 0.18,-0.18 0.21,-0.21 0.01,-0.01 0.02,-0.01 0.02,-0.04l-0 -0.27c-0.02,0.01 -0.09,0.08 -0.11,0.11 -0.04,0.04 -0.07,0.07 -0.11,0.11 -0.02,0.02 -0.03,0.03 -0.05,0.05 -0.02,0.02 -0.02,0.02 -0.01,0.08 0.01,0.04 0.03,0.15 0.05,0.17zm0.54 0c0.01,-0.06 0.04,-0.15 0.05,-0.21 0,-0.02 -0,-0.02 -0.02,-0.03l-0.16 -0.16c-0.02,-0.02 -0.09,-0.1 -0.11,-0.11 -0.01,0.05 -0,0.13 -0,0.19 0,0.13 -0.02,0.08 0.14,0.24 0.02,0.02 0.08,0.09 0.1,0.09zm-0.51 0.08c0,0.02 0.05,0.11 0.06,0.12l0.14 -0.02c0,-0.04 0,-0.24 0,-0.3 -0.02,0.01 -0.04,0.03 -0.05,0.05 -0.02,0.02 -0.03,0.03 -0.05,0.05 -0.03,0.03 -0.07,0.07 -0.1,0.1zm0.27 0.09l0.17 -0.02c0.01,-0.02 0.03,-0.05 0.03,-0.07l-0.2 -0.2 -0 0.29z"/>
 </g>
</svg>
