<?xml version="1.0" encoding="UTF-8"?>
<!DOCTYPE svg PUBLIC "-//W3C//DTD SVG 1.1//EN" "http://www.w3.org/Graphics/SVG/1.1/DTD/svg11.dtd">
<!-- Creator: CorelDRAW 2020 (64 Bit) -->
<svg xmlns="http://www.w3.org/2000/svg" xml:space="preserve" width="5.4188mm" height="5.419mm" version="1.1" style="shape-rendering:geometricPrecision; text-rendering:geometricPrecision; image-rendering:optimizeQuality; fill-rule:evenodd; clip-rule:evenodd"
viewBox="0 0 2.67 2.67"
 xmlns:xlink="http://www.w3.org/1999/xlink"
 xmlns:xodm="http://www.corel.com/coreldraw/odm/2003">
 <defs>
  <style type="text/css">
   <![CDATA[
    .fil0 {fill:#268EEF}
   ]]>
  </style>
 </defs>
 <g id="Camada_x0020_1">
  <metadata id="CorelCorpID_0Corel-Layer"/>
  <g id="_2166645686192">
   <path class="fil0" d="M1.25 0.96c0.02,0.05 0.07,0.1 0.08,0.14l-0.3 0.12c-0.05,0.02 -0.04,0.05 -0.03,0.11 0,0.2 0,0.4 0,0.6 -0.25,-0.02 -0.53,-0.02 -0.75,-0.11 -0.17,-0.07 -0.15,-0.12 -0.19,-0.13 -0.04,-0.01 -0.05,0.02 -0.05,0.05 -0.02,0.14 0.09,0.25 0.15,0.3 0.29,0.23 0.97,0.33 1.43,0.32l0.33 -0.01c0.07,0.08 0.08,0.2 0.24,0.28 0.11,0.06 0.26,0.04 0.23,-0.08 -0.01,-0.04 -0.03,-0.03 -0.07,-0.06 -0.05,-0.04 -0.07,-0.12 -0.03,-0.19 0.02,-0.02 -0,-0.01 0.04,-0.02l0.14 -0.05c0.1,-0.05 0.24,-0.14 0.19,-0.3 -0.11,-0.04 -0.3,-0.02 -0.42,-0.01 -0,-0.16 0.02,-0.11 -0.18,-0.23l-0.26 -0.14 0.03 -0.45c0,-0.07 -0.13,-0.25 -0.15,-0.31 0.05,-0 0.11,-0 0.16,-0.01 0.07,-0 0.08,-0.02 0.12,-0.05l0.31 -0.22c0.12,-0.09 0.12,-0.3 -0.07,-0.3 -0.07,0 -0.09,0.03 -0.17,0.09 -0.05,0.03 -0.09,0.06 -0.14,0.1 -0.15,0.11 -0.13,0.08 -0.38,0.08 -0.27,0 -0.2,-0.02 -0.47,0.22 -0.1,0.09 -0.05,0.08 -0.32,0 -0.03,-0.01 -0.05,-0.01 -0.09,-0.03 -0.11,-0.04 -0.15,0.1 -0.14,0.19 0.01,0.1 0.04,0.09 0.12,0.12 0.11,0.04 0.23,0.08 0.34,0.12 0.09,0.03 0.09,0.01 0.15,-0.04 0.03,-0.02 0.11,-0.09 0.13,-0.1zm-0.63 -0.2c-0.03,0.03 -0.04,0.07 -0.02,0.12 0.02,0.02 0.14,0.05 0.18,0.07 0.06,0.02 0.12,0.04 0.19,0.06 0.07,0.02 0.04,0.03 0.15,-0.06 0.02,-0.02 0.05,-0.04 0.07,-0.06 0.1,-0.08 0.09,-0.03 0.17,0.1 0.02,0.03 0.03,0.04 0.04,0.07 0.02,0.04 0.03,0.04 0.03,0.09 -0.08,0.06 -0.3,0.11 -0.36,0.15 -0,0.09 -0.01,0.59 0,0.64l0.14 0 0 -0.43c0,-0.12 -0.01,-0.1 0.13,-0.16 0.3,-0.11 0.23,-0.14 0.24,0.35 0.04,0.02 0.09,0.05 0.12,0.07 0.04,0.03 0.08,0.05 0.12,0.08 0.19,0.12 0.09,0.08 0.32,0.08l0 -0.08c-0.07,-0.03 -0.14,-0.08 -0.21,-0.11 -0.27,-0.15 -0.24,-0.1 -0.23,-0.24l0.02 -0.32c0.01,-0.1 0.02,-0.06 -0.02,-0.13 -0.04,-0.07 -0.08,-0.14 -0.12,-0.21 -0.08,-0.15 0,-0.11 0.13,-0.13 0.17,-0.02 0.12,0.01 0.24,-0.08 0.03,-0.02 0.27,-0.19 0.28,-0.21 0.03,-0.05 0.01,-0.1 -0.04,-0.11 -0.04,-0 -0.16,0.1 -0.2,0.12 -0.26,0.17 -0.11,0.13 -0.5,0.14 -0.19,0 -0.16,-0.02 -0.26,0.06 -0.35,0.29 -0.17,0.25 -0.64,0.12zm1.97 1.21c-0.03,-0.01 -0.22,0.04 -0.29,0.04 -0.11,0.01 -0.22,0.01 -0.33,0.01 -0.39,0.02 -0.92,0.02 -1.31,-0.02 -0.15,-0.02 -0.29,-0.04 -0.43,-0.09 -0.05,-0.02 -0.08,-0.04 -0.13,-0.06 0.1,0.28 0.83,0.39 1.2,0.42 0.28,0.02 0.96,0.01 1.21,-0.16 0.04,-0.03 0.08,-0.06 0.07,-0.14zm-1.28 -0.49l-0 0.47c0.11,-0 0.44,0.01 0.49,-0.01 -0.08,-0.08 -0.28,-0.14 -0.29,-0.21 -0,-0.03 -0,-0.08 -0,-0.11 0,-0.07 0,-0.14 0,-0.22 -0.03,0.01 -0.18,0.06 -0.2,0.08zm0.72 0.89c0.03,0.05 0.03,0.06 0.09,0.13 0.04,0.04 0.08,0.07 0.16,0.08l-0.04 -0.05c-0.05,-0.07 -0.05,-0.11 -0.05,-0.18 -0.05,0.01 -0.11,0 -0.16,0.02z"/>
   <path class="fil0" d="M1 0.01c-0.35,0.09 -0.23,0.62 0.1,0.55 0.12,-0.02 0.23,-0.16 0.2,-0.33 -0.02,-0.13 -0.15,-0.26 -0.3,-0.22zm0.05 0.07c0.1,0 0.19,0.09 0.19,0.2 0,0.11 -0.08,0.2 -0.19,0.2 -0.1,0 -0.19,-0.09 -0.19,-0.2 0,-0.11 0.08,-0.2 0.19,-0.2z"/>
  </g>
 </g>
</svg>
