<?xml version="1.0" encoding="UTF-8"?>
<!DOCTYPE svg PUBLIC "-//W3C//DTD SVG 1.1//EN" "http://www.w3.org/Graphics/SVG/1.1/DTD/svg11.dtd">
<!-- Creator: CorelDRAW 2020 (64 Bit) -->
<svg xmlns="http://www.w3.org/2000/svg" xml:space="preserve" width="3.5636mm" height="5.4187mm" version="1.1" style="shape-rendering:geometricPrecision; text-rendering:geometricPrecision; image-rendering:optimizeQuality; fill-rule:evenodd; clip-rule:evenodd"
viewBox="0 0 1.09 1.66"
 xmlns:xlink="http://www.w3.org/1999/xlink"
 xmlns:xodm="http://www.corel.com/coreldraw/odm/2003">
 <defs>
  <style type="text/css">
   <![CDATA[
    .fil0 {fill:#268EEF;fill-rule:nonzero}
   ]]>
  </style>
 </defs>
 <g id="Camada_x0020_1">
  <metadata id="CorelCorpID_0Corel-Layer"/>
  <g id="_2166528076512">
   <g>
    <path class="fil0" d="M0.59 0.17c-0.07,0 -0.12,0.05 -0.12,0.11 0,0.06 0.06,0.11 0.12,0.11 0.07,0 0.12,-0.05 0.12,-0.11 0,-0.06 -0.06,-0.11 -0.12,-0.11zm0 0.17c-0.04,0 -0.06,-0.03 -0.06,-0.06 0,-0.03 0.03,-0.06 0.06,-0.06 0.04,0 0.06,0.03 0.06,0.06 0,0.03 -0.03,0.06 -0.06,0.06z"/>
    <path class="fil0" d="M1.03 1.5c0.03,-0.01 0.04,-0.04 0.03,-0.07l-0.03 -0.08c-0.01,-0.01 -0.02,-0.03 -0.03,-0.03 -0.01,-0.01 -0.03,-0.01 -0.05,-0l-0 0 -0.16 -0.46c0.01,-0 0.02,-0.01 0.02,-0.03l0 -0.06c0,-0.05 -0.04,-0.08 -0.09,-0.08l-0.02 0c0.01,-0.02 0.02,-0.04 0.02,-0.06 0,-0.02 -0.01,-0.04 -0.02,-0.06 0.03,-0 0.05,-0.03 0.05,-0.05l0 -0.03 0.1 0c0.05,0 0.09,-0.04 0.09,-0.08l0 -0.23c0,-0.05 -0.04,-0.08 -0.09,-0.08l-0.1 0c-0,0 -0,-0 -0,-0l-0.01 -0.03c-0.01,-0.03 -0.05,-0.06 -0.09,-0.06l-0.1 0c-0.04,0 -0.07,0.02 -0.09,0.06l-0.01 0.03c-0,0 -0,0 -0,0l-0.1 0c-0.05,0 -0.09,0.04 -0.09,0.08l0 0.23c0,0.05 0.04,0.08 0.09,0.08l0.1 0 0 0.03c0,0.01 0,0.01 0,0.02l-0.09 0.03c-0.01,-0.01 -0.02,-0.02 -0.03,-0.02 -0.02,-0.01 -0.05,-0.01 -0.07,-0l-0.19 0.06c-0.05,0.02 -0.07,0.06 -0.06,0.11 0.01,0.03 0.05,0.06 0.09,0.06 0.01,0 0.02,-0 0.03,-0l0.19 -0.06c0.04,-0.01 0.06,-0.05 0.06,-0.08l0.11 -0.04c-0.01,0.02 -0.01,0.03 -0.01,0.05 0,0.02 0.01,0.04 0.02,0.06l-0.02 0c-0.05,0 -0.09,0.04 -0.09,0.08l0 0.06c0,0.01 0.01,0.02 0.02,0.03l-0.16 0.46 -0 -0c-0.02,-0 -0.03,-0 -0.05,0 -0.01,0.01 -0.03,0.02 -0.03,0.03l-0.03 0.08c-0.01,0.01 -0,0.03 0,0.04 0.01,0.01 0.01,0.02 0.03,0.02 -0.03,0.01 -0.06,0.04 -0.06,0.08l0 0.06c0,0.01 0.01,0.03 0.03,0.03l0.13 0c0.02,0 0.03,-0.01 0.03,-0.03l0 -0.06c0,-0.02 -0.01,-0.04 -0.02,-0.06 0,-0 0.01,-0 0.01,-0 0.01,-0.01 0.03,-0.02 0.03,-0.03l0.02 -0.05 0.18 0 0 0.06c0,0.01 0.01,0.03 0.02,0.04 -0.01,0.01 -0.02,0.03 -0.02,0.05l0 0.06c0,0.01 0.01,0.03 0.03,0.03l0.13 0c0.02,0 0.03,-0.01 0.03,-0.03l0 -0.06c0,-0.02 -0.01,-0.03 -0.02,-0.05 0.01,-0.01 0.02,-0.02 0.02,-0.04l0 -0.06 0.18 0 0.02 0.05c0.01,0.01 0.02,0.03 0.03,0.03 0,0 0.01,0 0.01,0 -0.01,0.01 -0.02,0.03 -0.02,0.06l0 0.06c0,0.01 0.01,0.03 0.03,0.03l0.13 0c0.02,0 0.03,-0.01 0.03,-0.03l0 -0.06c0,-0.04 -0.02,-0.07 -0.06,-0.08zm-0.17 -0.14c-0,0.01 -0.01,0.01 -0.01,0.02l-0.18 0c-0.01,-0.02 -0.03,-0.03 -0.05,-0.03l-0 0 0 -0.49 0.11 0 0.17 0.47 -0 0c-0.02,0 -0.03,0.01 -0.04,0.03zm-0.3 0.13c-0,0 -0,-0 -0,-0l0 -0.09c0,-0 0,-0 0,-0l0.06 0c0,0 0,0 0,0l0 0.09c0,0 -0,0 -0,0l-0.06 0zm-0.13 -1.21c0,-0.08 0.07,-0.15 0.16,-0.15 0.09,0 0.16,0.07 0.16,0.15 0,0.08 -0.07,0.15 -0.16,0.15 -0.09,0 -0.16,-0.07 -0.16,-0.15zm0.44 -0.11l0 0.23c0,0.02 -0.01,0.03 -0.03,0.03l-0.1 0c0.04,-0.04 0.07,-0.09 0.07,-0.15 0,-0.06 -0.03,-0.11 -0.07,-0.15l0.1 0c0.02,0 0.03,0.01 0.03,0.03zm-0.36 -0.1c0,-0.01 0.02,-0.02 0.03,-0.02l0.1 0c0.01,0 0.03,0.01 0.03,0.02l0.01 0.03c0,0 0,0 0,0 -0.03,-0.01 -0.06,-0.02 -0.09,-0.02 -0.03,0 -0.06,0.01 -0.09,0.02 0,-0 0,-0 0,-0l0.01 -0.03zm-0.2 0.32l0 -0.23c0,-0.02 0.01,-0.03 0.03,-0.03l0.1 0c-0.04,0.04 -0.07,0.09 -0.07,0.15 0,0.06 0.03,0.11 0.07,0.15l-0.1 0c-0.02,0 -0.03,-0.01 -0.03,-0.03zm0.38 0.08l0 0.03c0,0 -0,0 -0,0l-0.19 0c-0,0 -0,-0 -0,-0l0 -0.03 0.19 0zm-0.4 0.16l-0.19 0.06c-0,0 -0.01,0 -0.01,0 -0.01,0 -0.03,-0.01 -0.03,-0.02 -0.01,-0.02 0,-0.03 0.02,-0.04l0.19 -0.06c0,-0 0.01,-0 0.01,-0 0,0 0.01,0 0.01,0 0.01,0 0.01,0.01 0.02,0.02 0.01,0.02 -0,0.03 -0.02,0.04zm0.24 -0.01c0,-0.03 0.03,-0.06 0.06,-0.06 0.04,0 0.06,0.03 0.06,0.06 0,0.03 -0.03,0.06 -0.06,0.06 -0.04,0 -0.06,-0.03 -0.06,-0.06zm-0.09 0.14c0,-0.02 0.01,-0.03 0.03,-0.03l0.25 0c0.02,0 0.03,0.01 0.03,0.03l0 0.03 -0 0c-0,0 -0,0 -0,0l-0.31 0c-0,0 -0,0 -0,0l-0 0 0 -0.03zm0.02 0.08l0.11 0 0 0.49 -0 0c-0.02,0 -0.04,0.01 -0.05,0.03l-0.18 0c-0,-0.01 -0,-0.01 -0.01,-0.02 -0.01,-0.01 -0.02,-0.02 -0.04,-0.03l-0 -0 0.17 -0.47zm-0.24 0.75l-0.07 0 0 -0.03c0,-0.02 0.01,-0.03 0.03,-0.03 0.02,0 0.03,0.01 0.03,0.03l0 0.03zm0.05 -0.22l-0.03 0.08c-0,0 -0,0 -0,0 -0,0 -0,0 -0,0l-0.06 -0.02 0 0c-0,-0 -0,-0 -0,-0 -0,-0 -0,-0 -0,-0l0.03 -0.08c0,-0 0,-0 0,-0 0,-0 0,-0 0,-0 0,0 0,0 0,0l0.03 0.01 0 0c0,0 0,0 0,0l0.03 0.01c0,0 0,0 0,0 0,0 0,0 0,0zm0.35 0.22l-0.07 0 0 -0.03c0,-0.02 0.01,-0.03 0.03,-0.03 0.02,0 0.03,0.01 0.03,0.03l0 0.03zm0.29 -0.22c-0,-0 0,-0 0,-0l0.06 -0.02c0,-0 0,-0 0,-0 0,0 0,0 0,0l0.03 0.08c0,0 -0,0 -0,0l-0.06 0.02c-0,0 -0,0 -0,-0 -0,-0 -0,-0 -0,-0l-0.03 -0.08zm0.12 0.22l-0.07 0 0 -0.03c0,-0.02 0.01,-0.03 0.03,-0.03 0.02,0 0.03,0.01 0.03,0.03l0 0.03z"/>
   </g>
  </g>
 </g>
</svg>
